<svg width="20" height="20" viewBox="0 0 20 20" fill="none" xmlns="http://www.w3.org/2000/svg">
<path d="M17.2815 5.49458C16.3325 3.28086 14.7199 1.67089 12.4889 0.718865C11.3739 0.243045 10.2056 0 8.98521 0C7.76497 0 6.60538 0.24075 5.49156 0.718865C3.27906 1.66836 1.65926 3.2773 0.708588 5.49458C0.232206 6.60542 0 7.76921 0 8.99011C0 10.2113 0.232206 11.3847 0.708588 12.4958C1.65926 14.713 3.27926 16.3316 5.49156 17.2814C6.60559 17.7595 7.76494 18 8.98521 18C10.2055 18 11.3739 17.757 12.4887 17.2814C14.7197 16.3293 16.3324 14.7093 17.2816 12.4958C17.7594 11.3811 18 10.2113 18 8.99011C18 7.76921 17.7596 6.60919 17.2815 5.49458ZM15.8448 12.9684C15.1383 14.1807 14.1704 15.1425 12.9514 15.8535C11.7398 16.5604 10.4123 16.9169 8.98541 16.9169C7.91276 16.9169 6.88924 16.7102 5.91482 16.2867C4.94044 15.8634 4.09915 15.3069 3.39538 14.603C2.69162 13.8988 2.13147 13.0489 1.71262 12.0723C1.295 11.0992 1.09262 10.0636 1.09262 8.99014C1.09262 7.5623 1.44324 6.24075 2.14576 5.03182C2.85079 3.81848 3.81888 2.85571 5.02926 2.14671C6.23944 1.43773 7.55838 1.08312 8.98521 1.08312C10.4123 1.08312 11.7396 1.43982 12.9512 2.14671C14.1702 2.8578 15.136 3.82054 15.8446 5.03179C16.5532 6.24284 16.9074 7.5623 16.9074 8.99011C16.9074 10.418 16.5555 11.7485 15.8448 12.9684Z" transform="translate(1 1)" fill="#828282" stroke="#828282" stroke-width="0.5"/>
<path d="M1.11215 5.65213V0.55142C1.11215 0.246194 0.846353 -7.00494e-08 0.541265 -7.00494e-08C0.255941 -7.00494e-08 -3.80572e-07 0.246194 -3.80572e-07 0.55142V5.73088C-3.80572e-07 5.74077 0.0197355 5.78026 0.0197355 5.80969C2.22641e-07 5.98696 0.0493526 6.13466 0.167353 6.25293L3.11009 9.19708C3.307 9.3941 3.67106 9.3941 3.86782 9.19708C4.09412 8.97063 4.07924 8.64207 3.86782 8.42904L1.11215 5.65213Z" transform="translate(9.44385 4.25922)" fill="#828282" stroke="#828282" stroke-width="0.5"/>
</svg>
